<svg width="71" height="14" viewBox="0 0 71 14" fill="none" xmlns="http://www.w3.org/2000/svg">
<path d="M8.30094 10.8027H2.75504V0.317383H0.100742V13H8.30094V10.8027ZM14.558 13.2021C17.4057 13.2021 19.225 11.3828 19.225 8.28027C19.225 5.22168 17.3793 3.37598 14.558 3.37598C11.7368 3.37598 9.89106 5.23047 9.89106 8.28027C9.89106 11.374 11.7104 13.2021 14.558 13.2021ZM14.558 11.2422C13.2924 11.2422 12.4926 10.1787 12.4926 8.28906C12.4926 6.41699 13.31 5.33594 14.558 5.33594C15.8061 5.33594 16.6147 6.41699 16.6147 8.28906C16.6147 10.1787 15.8149 11.2422 14.558 11.2422ZM29.9734 3.57812H27.407V8.97461C27.407 10.2227 26.695 11.04 25.5525 11.04C24.4187 11.04 23.7946 10.3721 23.7946 9.11523V3.57812H21.2282V9.65137C21.2282 11.8486 22.5818 13.1758 24.6208 13.1758C26.0446 13.1758 26.9763 12.4902 27.4421 11.3037H27.4948V13H29.9734V3.57812Z" fill="#EEFC79"/>
<path d="M37.3027 13C39.9834 13 41.5918 11.6816 41.5918 9.51953C41.5918 7.76172 40.3701 6.5752 38.6123 6.36426V6.30273C39.9658 6.05664 40.9326 4.85254 40.9326 3.44629C40.9326 1.57422 39.4561 0.317383 37.2764 0.317383H32.7148V13H37.3027ZM33.9102 1.38086H37.0215C38.709 1.38086 39.7197 2.19824 39.7197 3.57812C39.7197 5.07227 38.5947 5.95117 36.6699 5.95117H33.9102V1.38086ZM33.9102 11.9365V6.98828H36.9775C39.166 6.98828 40.3613 7.87598 40.3613 9.45801C40.3613 11.0312 39.21 11.9365 37.1357 11.9365H33.9102ZM46.7942 12.1475C45.555 12.1475 44.7024 11.4619 44.7024 10.4688C44.7024 9.45801 45.5022 8.83398 46.9436 8.7373L49.6507 8.55273V9.56348C49.6507 11.0137 48.3938 12.1475 46.7942 12.1475ZM46.5569 13.1494C47.9192 13.1494 49.1673 12.3936 49.677 11.2598H49.7034V13H50.8108V6.74219C50.8108 4.87891 49.5013 3.70996 47.4182 3.70996C45.3352 3.70996 43.9905 4.87012 43.8587 6.50488H44.9837C45.1858 5.39746 46.0471 4.73828 47.3919 4.73828C48.8157 4.73828 49.6507 5.5293 49.6507 6.84766V7.63867L46.803 7.81445C44.6936 7.95508 43.5247 8.9043 43.5247 10.4688C43.5247 12.0684 44.7552 13.1494 46.5569 13.1494ZM53.482 13H54.6421V7.58594C54.6421 5.88965 55.7056 4.74707 57.2877 4.74707C58.817 4.74707 59.6959 5.66113 59.6959 7.26074V13H60.856V7.07617C60.856 5.00195 59.6255 3.70996 57.6216 3.70996C56.1451 3.70996 55.0728 4.43945 54.607 5.54688H54.5806V3.85938H53.482V13ZM64.784 8.18359V0.317383H63.6151V13H64.784V9.45801L65.8036 8.51758L69.4598 13H70.8221L66.6385 7.80566L70.743 3.85938H69.3016L64.784 8.18359Z" fill="white"/>
</svg>
